<?xml version="1.0" encoding="UTF-8"?> <svg xmlns="http://www.w3.org/2000/svg" data-v-fde0c5aa="" viewBox="0 0 300 300" class="iconLeft"><!----><defs data-v-fde0c5aa=""><linearGradient data-v-fde0c5aa="" gradientTransform="rotate(25)" id="87bc1940-316c-41be-a0aa-bb906d4726de" x1="0%" y1="0%" x2="100%" y2="0%"><stop data-v-fde0c5aa="" offset="0%" stop-color="#01648B" stop-opacity="1"></stop><stop data-v-fde0c5aa="" offset="100%" stop-color="#5BD0A4" stop-opacity="1"></stop></linearGradient></defs><rect data-v-fde0c5aa="" fill="url(#87bc1940-316c-41be-a0aa-bb906d4726de)" x="0" y="0" width="300px" height="300px" class="logo-background-square"></rect><defs data-v-fde0c5aa=""><!----></defs><g data-v-fde0c5aa="" id="1a947260-35b9-4d04-9d9a-c67a310d79c0" fill="#ffffff" transform="matrix(4.461056232452393,0,0,4.461056232452393,125.4099362529648,103.20352204476416)"><path d="M3.91 6.89L3.91 6.89Q4.96 6.89 5.61 7.54L5.61 7.54L5.61 7.54Q6.27 8.19 6.27 9.24L6.27 9.24L6.27 13.89L6.27 13.89Q6.27 14 6.16 14L6.16 14L5.96 14L5.96 14Q5.85 14 5.85 13.89L5.85 13.89L5.85 9.31L5.85 9.31Q5.85 8.41 5.29 7.85L5.29 7.85L5.29 7.85Q4.73 7.28 3.85 7.28L3.85 7.28L3.85 7.28Q2.91 7.28 2.34 7.83L2.34 7.83L2.34 7.83Q1.76 8.39 1.76 9.28L1.76 9.28L1.76 13.89L1.76 13.89Q1.76 14 1.65 14L1.65 14L1.46 14L1.46 14Q1.34 14 1.34 13.89L1.34 13.89L1.34 7.10L1.34 7.10Q1.34 6.99 1.46 6.99L1.46 6.99L1.65 6.99L1.65 6.99Q1.76 6.99 1.76 7.10L1.76 7.10L1.76 7.94L1.76 7.94Q1.76 7.97 1.78 7.98L1.78 7.98L1.78 7.98Q1.79 7.99 1.81 7.97L1.81 7.97L1.81 7.97Q2.11 7.45 2.65 7.17L2.65 7.17L2.65 7.17Q3.19 6.89 3.91 6.89L3.91 6.89ZM11.20 13.72L11.20 13.72Q11.96 13.72 12.50 13.37L12.50 13.37L12.50 13.37Q13.05 13.02 13.27 12.43L13.27 12.43L13.30 12.38L13.30 12.38Q13.33 12.33 13.37 12.33L13.37 12.33L13.44 12.33L13.58 12.36L13.58 12.36Q13.69 12.39 13.65 12.50L13.65 12.50L13.65 12.50Q13.38 13.23 12.73 13.67L12.73 13.67L12.73 13.67Q12.08 14.11 11.19 14.11L11.19 14.11L11.19 14.11Q10.23 14.11 9.58 13.62L9.58 13.62L9.58 13.62Q8.93 13.12 8.71 12.29L8.71 12.29L8.71 12.29Q8.62 11.97 8.60 11.59L8.60 11.59L8.60 11.59Q8.58 11.20 8.58 10.47L8.58 10.47L8.58 10.47Q8.58 9.81 8.60 9.43L8.60 9.43L8.60 9.43Q8.62 9.04 8.69 8.74L8.69 8.74L8.69 8.74Q8.89 7.90 9.55 7.38L9.55 7.38L9.55 7.38Q10.22 6.87 11.19 6.87L11.19 6.87L11.19 6.87Q12.19 6.87 12.87 7.40L12.87 7.40L12.87 7.40Q13.54 7.92 13.72 8.81L13.72 8.81L13.72 8.81Q13.78 9.06 13.79 9.44L13.79 9.44L13.79 9.44Q13.80 9.83 13.80 10.47L13.80 10.47L13.80 10.47Q13.80 10.58 13.69 10.58L13.69 10.58L9.04 10.58L9.04 10.58Q9.00 10.58 9.00 10.63L9.00 10.63L9.00 10.63Q9.00 11.12 9.02 11.50L9.02 11.50L9.02 11.50Q9.03 11.89 9.07 12.07L9.07 12.07L9.07 12.07Q9.21 12.81 9.78 13.27L9.78 13.27L9.78 13.27Q10.35 13.72 11.20 13.72L11.20 13.72ZM11.19 7.27L11.19 7.27Q10.33 7.27 9.77 7.72L9.77 7.72L9.77 7.72Q9.21 8.18 9.07 8.90L9.07 8.90L9.07 8.90Q9.00 9.24 9.00 10.18L9.00 10.18L9.00 10.18Q9.00 10.22 9.04 10.22L9.04 10.22L13.34 10.22L13.34 10.22Q13.38 10.22 13.38 10.18L13.38 10.18L13.38 10.18Q13.38 9.23 13.31 8.92L13.31 8.92L13.31 8.92Q13.16 8.18 12.59 7.72L12.59 7.72L12.59 7.72Q12.03 7.27 11.19 7.27L11.19 7.27ZM17.47 14L17.47 14Q17.37 14 17.35 13.90L17.35 13.90L15.39 7.11L15.39 7.08L15.39 7.08Q15.39 6.99 15.47 6.99L15.47 6.99L15.67 6.99L15.67 6.99Q15.76 6.99 15.79 7.08L15.79 7.08L17.56 13.37L17.56 13.37Q17.57 13.38 17.58 13.38L17.58 13.38L17.58 13.38Q17.60 13.38 17.61 13.37L17.61 13.37L19.40 7.08L19.40 7.08Q19.43 6.99 19.53 6.99L19.53 6.99L19.74 6.99L19.74 6.99Q19.84 6.99 19.87 7.08L19.87 7.08L21.66 13.36L21.66 13.36Q21.67 13.37 21.69 13.37L21.69 13.37L21.69 13.37Q21.70 13.37 21.71 13.36L21.71 13.36L23.49 7.08L23.49 7.08Q23.52 6.99 23.62 6.99L23.62 6.99L23.81 6.99L23.81 6.99Q23.87 6.99 23.89 7.02L23.89 7.02L23.89 7.02Q23.91 7.06 23.90 7.11L23.90 7.11L21.92 13.90L21.92 13.90Q21.90 14 21.80 14L21.80 14L21.59 14L21.59 14Q21.49 14 21.46 13.90L21.46 13.90L19.66 7.78L19.66 7.78Q19.64 7.77 19.63 7.77L19.63 7.77L19.63 7.77Q19.61 7.77 19.60 7.78L19.60 7.78L17.82 13.90L17.82 13.90Q17.79 14 17.70 14L17.70 14L17.47 14ZM27.80 14.06L27.80 14.06Q27.09 14.06 26.54 13.82L26.54 13.82L26.54 13.82Q26.00 13.58 25.69 13.17L25.69 13.17L25.69 13.17Q25.38 12.77 25.38 12.28L25.38 12.28L25.38 12.04L25.38 12.04Q25.38 11.93 25.49 11.93L25.49 11.93L25.68 11.93L25.68 11.93Q25.79 11.93 25.79 12.04L25.79 12.04L25.79 12.26L25.79 12.26Q25.79 12.64 26.04 12.97L26.04 12.97L26.04 12.97Q26.29 13.30 26.75 13.50L26.75 13.50L26.75 13.50Q27.20 13.69 27.79 13.69L27.79 13.69L27.79 13.69Q28.66 13.69 29.20 13.27L29.20 13.27L29.20 13.27Q29.75 12.84 29.75 12.18L29.75 12.18L29.75 12.18Q29.75 11.72 29.48 11.44L29.48 11.44L29.48 11.44Q29.20 11.16 28.83 11.01L28.83 11.01L28.83 11.01Q28.46 10.86 27.69 10.63L27.69 10.63L27.69 10.63Q26.95 10.39 26.49 10.19L26.49 10.19L26.49 10.19Q26.03 9.98 25.72 9.63L25.72 9.63L25.72 9.63Q25.41 9.27 25.41 8.72L25.41 8.72L25.41 8.72Q25.41 7.91 26.06 7.42L26.06 7.42L26.06 7.42Q26.71 6.93 27.76 6.93L27.76 6.93L27.76 6.93Q28.83 6.93 29.48 7.43L29.48 7.43L29.48 7.43Q30.14 7.94 30.14 8.71L30.14 8.71L30.14 8.78L30.14 8.78Q30.14 8.89 30.03 8.89L30.03 8.89L29.85 8.89L29.85 8.89Q29.74 8.89 29.74 8.79L29.74 8.79L29.74 8.71L29.74 8.71Q29.74 8.11 29.18 7.71L29.18 7.71L29.18 7.71Q28.63 7.31 27.75 7.31L27.75 7.31L27.75 7.31Q26.88 7.31 26.36 7.69L26.36 7.69L26.36 7.69Q25.83 8.08 25.83 8.69L25.83 8.69L25.83 8.69Q25.83 9.11 26.08 9.39L26.08 9.39L26.08 9.39Q26.33 9.66 26.72 9.84L26.72 9.84L26.72 9.84Q27.10 10.01 27.78 10.22L27.78 10.22L27.78 10.22Q28.59 10.47 29.05 10.66L29.05 10.66L29.05 10.66Q29.51 10.85 29.84 11.21L29.84 11.21L29.84 11.21Q30.17 11.58 30.17 12.17L30.17 12.17L30.17 12.17Q30.17 12.99 29.52 13.52L29.52 13.52L29.52 13.52Q28.87 14.06 27.80 14.06L27.80 14.06Z"></path></g><defs data-v-fde0c5aa=""><!----></defs><g data-v-fde0c5aa="" id="a7cb644f-a69b-4c8e-a00e-ab14631a8720" stroke="none" fill="#ffffff" transform="matrix(0.7838696241378784,0,0,0.7838696241378784,40,110.80690761997202)"><circle cx="97.745" cy="27.719" r="2.256"></circle><circle cx="97.745" cy="34.085" r="2.255"></circle><circle cx="91.379" cy="27.719" r="2.256"></circle><circle cx="91.379" cy="34.085" r="2.255"></circle><circle cx="91.379" cy="72.281" r="2.255"></circle><circle cx="85.014" cy="21.354" r="2.256"></circle><circle cx="85.014" cy="27.719" r="2.256"></circle><circle cx="85.014" cy="34.085" r="2.255"></circle><path d="M85.014 42.707a2.257 2.257 0 1 1 0-4.514 2.257 2.257 0 0 1 0 4.514z"></path><circle cx="85.014" cy="59.55" r="2.256"></circle><circle cx="85.014" cy="65.915" r="2.255"></circle><circle cx="78.646" cy="27.719" r="2.256"></circle><circle cx="78.646" cy="34.085" r="2.255"></circle><circle cx="78.646" cy="40.451" r="2.255"></circle><circle cx="78.646" cy="46.818" r="2.255"></circle><circle cx="78.646" cy="53.183" r="2.256"></circle><circle cx="78.646" cy="65.915" r="2.255"></circle><circle cx="72.281" cy="21.354" r="2.256"></circle><circle cx="72.281" cy="27.719" r="2.256"></circle><circle cx="72.281" cy="34.085" r="2.255"></circle><path d="M72.281 42.707a2.257 2.257 0 0 1 0-4.512 2.256 2.256 0 0 1 0 4.512z"></path><circle cx="72.281" cy="46.817" r="2.256"></circle><circle cx="72.281" cy="53.184" r="2.256"></circle><circle cx="65.915" cy="21.354" r="2.256"></circle><circle cx="65.915" cy="27.719" r="2.256"></circle><circle cx="65.915" cy="34.085" r="2.255"></circle><circle cx="65.915" cy="40.45" r="2.256"></circle><circle cx="65.915" cy="46.817" r="2.256"></circle><path d="M59.549 29.976a2.257 2.257 0 0 1 .001-4.512 2.256 2.256 0 0 1-.001 4.512z"></path><circle cx="59.55" cy="34.085" r="2.255"></circle><path d="M59.549 42.707a2.256 2.256 0 1 1 .004-4.512 2.256 2.256 0 0 1-.004 4.512z"></path><circle cx="59.549" cy="46.818" r="2.255"></circle><circle cx="53.178" cy="46.818" r="2.255"></circle><circle cx="59.55" cy="53.183" r="2.256"></circle><circle cx="53.184" cy="21.354" r="2.256"></circle><circle cx="53.184" cy="27.719" r="2.256"></circle><circle cx="53.184" cy="34.085" r="2.255"></circle><path d="M53.184 42.707a2.254 2.254 0 0 1-2.254-2.254 2.255 2.255 0 1 1 4.51 0 2.257 2.257 0 0 1-2.256 2.254z"></path><circle cx="53.184" cy="53.184" r="2.256"></circle><circle cx="53.184" cy="59.55" r="2.256"></circle><circle cx="46.911" cy="59.55" r="2.256"></circle><circle cx="53.184" cy="65.915" r="2.255"></circle><circle cx="46.817" cy="34.085" r="2.255"></circle><circle cx="46.817" cy="40.45" r="2.256"></circle><path d="M46.817 49.073a2.256 2.256 0 1 1 .001-4.511 2.256 2.256 0 0 1-.001 4.511zM40.458 49.073a2.256 2.256 0 1 1 0-4.51c1.244-.002 2.253 1.008 2.253 2.254s-1.009 2.256-2.253 2.256z"></path><circle cx="46.817" cy="53.184" r="2.256"></circle><circle cx="40.452" cy="21.354" r="2.256"></circle><circle cx="40.452" cy="27.719" r="2.256"></circle><circle cx="40.452" cy="53.184" r="2.256"></circle><circle cx="34.085" cy="21.354" r="2.256"></circle><circle cx="34.085" cy="27.719" r="2.256"></circle><circle cx="34.085" cy="34.085" r="2.255"></circle><circle cx="34.085" cy="59.55" r="2.256"></circle><circle cx="34.085" cy="65.915" r="2.255"></circle><circle cx="27.72" cy="21.353" r="2.256"></circle><circle cx="27.72" cy="34.085" r="2.255"></circle><circle cx="27.719" cy="40.451" r="2.255"></circle><circle cx="27.72" cy="53.183" r="2.256"></circle><circle cx="27.719" cy="59.55" r="2.256"></circle><circle cx="21.354" cy="59.55" r="2.256"></circle><circle cx="27.72" cy="65.915" r="2.255"></circle><circle cx="27.72" cy="72.281" r="2.255"></circle><circle cx="27.719" cy="78.647" r="2.255"></circle><circle cx="21.353" cy="21.354" r="2.256"></circle><circle cx="21.353" cy="27.719" r="2.256"></circle><circle cx="21.353" cy="34.085" r="2.255"></circle><path d="M21.353 42.707a2.255 2.255 0 1 1 0-4.51 2.255 2.255 0 0 1 0 4.51z"></path><circle cx="21.353" cy="46.817" r="2.256"></circle><circle cx="21.353" cy="53.184" r="2.256"></circle><circle cx="14.988" cy="21.353" r="2.256"></circle><circle cx="14.988" cy="27.719" r="2.256"></circle><circle cx="14.988" cy="34.085" r="2.255"></circle><circle cx="14.988" cy="40.451" r="2.255"></circle><path d="M14.988 49.073a2.255 2.255 0 1 1 0-4.51 2.255 2.255 0 0 1 0 4.51z"></path><circle cx="8.622" cy="27.719" r="2.256"></circle><circle cx="8.622" cy="34.085" r="2.255"></circle><circle cx="8.622" cy="40.45" r="2.256"></circle><circle cx="2.256" cy="27.719" r="2.256"></circle><circle cx="2.256" cy="34.085" r="2.255"></circle></g><!----></svg> 